<svg width="223" height="248" viewBox="0 0 223 248" fill="none" xmlns="http://www.w3.org/2000/svg">
<circle cx="111.272" cy="113.318" r="80" transform="rotate(-60 111.272 113.318)" fill="#EE704E"/>
<path d="M144.259 45.183C165.578 57.4916 181.127 75.0947 189.045 93.5846C196.963 112.074 197.24 131.418 188.086 147.274C178.931 163.129 162.04 172.561 142.069 174.949C122.098 177.337 99.0784 172.673 77.7593 160.364C56.4401 148.056 40.8911 130.453 32.9735 111.963C25.0559 93.4731 24.7788 74.1293 33.933 58.2737C43.0873 42.4181 59.9781 32.9862 79.9494 30.5981C99.9209 28.2101 122.94 32.8743 144.259 45.183Z" stroke="#A284A8"/>
<ellipse cx="105.925" cy="128.171" rx="46.7636" ry="77.4653" transform="rotate(-71.4447 105.925 128.171)" fill="#EE704E"/>
<circle cx="145.5" cy="155.5" r="60.5" fill="#FAC93B"/>
<path d="M147.996 182.394C137.702 200.224 123.489 213.515 108.854 220.602C94.2161 227.692 79.21 228.556 67.2469 221.649C55.2838 214.742 48.5291 201.314 47.3497 185.093C46.1705 168.875 50.5744 149.92 60.8685 132.09C71.1627 114.26 85.3758 100.969 100.011 93.8814C114.649 86.7921 129.655 85.9279 141.618 92.8349C153.581 99.7418 160.336 113.17 161.515 129.391C162.694 145.609 158.29 164.564 147.996 182.394Z" stroke="#A284A8"/>
<ellipse cx="142.5" cy="155.5" rx="49.5" ry="60.5" fill="#FAC93B"/>
<circle cx="144.5" cy="162.5" r="60" stroke="#A284A8"/>
</svg>
